<svg xmlns="http://www.w3.org/2000/svg"  viewBox="0 0 464.069 464.069" width="58px" height="58px"><path fill="#ffbd7b" d="M462.981,419.77l-52.91-159.26l-209-107l9.48-119.41c1.12-14.11-15.3-22.62-26.18-13.56l-79.3,65.97	l-78.78-66.16c-10.85-9.12-27.32-0.67-26.24,13.46l9.02,118.7l96,295h337.87C457.331,447.51,467.51,433.43,462.981,419.77z"/><path fill="#ffaa64" d="M462.981,419.77c4.53,13.66-5.65,27.74-20.04,27.74h-109.91c0-0.576-3.668,8.517,77.04-187	L462.981,419.77z"/><path fill="#ffaa64" d="M201.07,153.51l-96,294l-96-295l84.89,85.26c6.24,6.27,16.39,6.29,22.65,0.04L201.07,153.51z"/><path fill="#ffd3a6" d="M201.07,153.51l-84.46,84.3c-6.26,6.25-16.41,6.23-22.65-0.04l-84.89-85.26l96-66L201.07,153.51z"/><path fill="#fa9a4b" d="M201.07,153.51l-10.354,31.706c-0.391,1.199-1.061,2.288-1.953,3.179l-60.852,60.735	c-12.427,12.406-32.696,12.566-45.29-0.07l-61.242-61.506c-0.886-0.89-1.55-1.976-1.939-3.17L9.071,152.51l84.89,85.26	c6.24,6.27,16.39,6.29,22.65,0.04L201.07,153.51z"/></svg>