<svg xmlns="http://www.w3.org/2000/svg"  viewBox="0 0 100 100" width="100px" height="100px"><path fill="#f1bc19" d="M77 12A1 1 0 1 0 77 14A1 1 0 1 0 77 12Z"/><path fill="#e4e4f9" d="M50 13A37 37 0 1 0 50 87A37 37 0 1 0 50 13Z"/><path fill="#f1bc19" d="M83 11A4 4 0 1 0 83 19A4 4 0 1 0 83 11Z"/><path fill="#88ae45" d="M87 22A2 2 0 1 0 87 26A2 2 0 1 0 87 22Z"/><path fill="#fbcd59" d="M81 74A2 2 0 1 0 81 78 2 2 0 1 0 81 74zM15 59A4 4 0 1 0 15 67 4 4 0 1 0 15 59z"/><path fill="#88ae45" d="M25 85A2 2 0 1 0 25 89A2 2 0 1 0 25 85Z"/><path fill="#fff" d="M18.5 49A2.5 2.5 0 1 0 18.5 54 2.5 2.5 0 1 0 18.5 49zM79.5 32A1.5 1.5 0 1 0 79.5 35 1.5 1.5 0 1 0 79.5 32z"/><path fill="#472b29" d="M36.5 46h-6c-.276 0-.5-.224-.5-.5s.224-.5.5-.5h6c.276 0 .5.224.5.5S36.776 46 36.5 46zM45.5 39h-6c-.276 0-.5-.224-.5-.5s.224-.5.5-.5h6c.276 0 .5.224.5.5S45.776 39 45.5 39zM29.5 39h-6c-.276 0-.5-.224-.5-.5s.224-.5.5-.5h6c.276 0 .5.224.5.5S29.776 39 29.5 39zM36.5 39h-4c-.276 0-.5-.224-.5-.5s.224-.5.5-.5h4c.276 0 .5.224.5.5S36.776 39 36.5 39zM27.5 46h-4c-.276 0-.5-.224-.5-.5s.224-.5.5-.5h4c.276 0 .5.224.5.5S27.776 46 27.5 46zM38.5 53h-4c-.276 0-.5-.224-.5-.5s.224-.5.5-.5h4c.276 0 .5.224.5.5S38.776 53 38.5 53zM31.5 53h-8c-.276 0-.5-.224-.5-.5s.224-.5.5-.5h8c.276 0 .5.224.5.5S31.776 53 31.5 53z"/><path fill="#fabf82" d="M41.356,76c-0.843,0-1.546-0.281-2.108-0.984c-0.984-1.124-0.984-2.951,0.281-3.935l12.649-11.243 c1.124-0.984,2.951-0.984,3.935,0.281c0.984,1.124,0.984,2.951-0.281,3.935L43.183,75.297C42.621,75.719,42.059,76,41.356,76z"/><path fill="#472b29" d="M41.356,76.7c-1.1,0-1.992-0.419-2.654-1.246c-0.622-0.711-0.937-1.687-0.844-2.654 c0.087-0.91,0.528-1.717,1.241-2.271l12.613-11.214c0.737-0.646,1.711-0.965,2.68-0.866c0.91,0.087,1.718,0.527,2.273,1.241 c0.615,0.702,0.93,1.677,0.837,2.645c-0.087,0.911-0.528,1.718-1.241,2.272L43.648,75.82C43.08,76.249,42.352,76.7,41.356,76.7z M54.065,59.832c-0.517,0-1.038,0.192-1.427,0.532l-12.645,11.24c-0.556,0.434-0.707,0.959-0.742,1.329 c-0.056,0.577,0.14,1.184,0.523,1.622c0.419,0.521,0.9,0.744,1.581,0.744c0.466,0,0.874-0.163,1.407-0.563L55.367,63.53 c0.556-0.434,0.707-0.96,0.742-1.329c0.056-0.577-0.14-1.184-0.522-1.621c-0.432-0.552-0.958-0.703-1.328-0.738 C54.194,59.835,54.13,59.832,54.065,59.832z"/><path fill="#fabf82" d="M66.653,24c3.092,0,5.622,2.53,5.622,5.622s-2.53,5.622-5.622,5.622 c-3.092,0-5.622-2.53-5.622-5.622S63.562,24,66.653,24"/><path fill="#472b29" d="M66.653,35.943c-3.485,0-6.321-2.836-6.321-6.321c0-3.486,2.836-6.322,6.321-6.322 c3.486,0,6.322,2.836,6.322,6.322C72.976,33.107,70.14,35.943,66.653,35.943z M66.653,24.7c-2.714,0-4.921,2.208-4.921,4.922 s2.207,4.921,4.921,4.921s4.922-2.207,4.922-4.921S69.367,24.7,66.653,24.7z"/><g><path fill="#ffb74d" d="M46.275,52.108c-1.546,0-2.951-0.703-3.935-1.968c-1.686-2.108-1.124-5.2,0.984-6.886l10.962-8.151 c2.108-1.686,5.2-1.124,6.886,0.984s1.124,5.2-0.984,6.886l-10.962,8.151C48.383,51.827,47.259,52.108,46.275,52.108z"/></g><g><path fill="#fabf82" d="M70.167,47.751h-7.73v-6.465v-1.827c0,0,0.281-2.389-0.984-3.654 c-1.13-1.131-3.008-2.033-3.938-2.438l-7.305-4.871c-0.422-0.281-0.843-0.281-1.405-0.281h-9.838 c-1.124,0.141-1.968,1.265-1.827,2.389c0.141,1.124,1.265,1.967,2.389,1.827h8.995l4.379,3.711l-9.579,7.11 c-2.108,1.687-2.67,4.778-0.984,6.887c0.144,0.186,0.31,0.34,0.473,0.5l6.264,8.482l0.01,0.013H38.545 c-1.546,0-2.811,1.265-2.811,2.811S37.12,65,38.666,65h15.459c0.984,0,1.847-0.806,2.409-1.648c0.562-0.843,0.562-1.968,0-2.811 l-5.047-11.103l5.963-4.446L58.221,50c0,1.125,0.984,2.108,2.108,2.108h9.838c1.124,0,2.108-1.124,2.108-2.249 C72.275,48.735,71.291,47.751,70.167,47.751z"/></g><g><path fill="#ea5167" d="M57.518,44.941L58,46.438l4.437-0.125l0-6.853c0,0,0.281-2.389-0.984-3.654 C59.907,34.259,54,31,54,31l-3,4l1.724,1.277l-9.4,6.977c-2.108,1.686-2.67,4.778-0.984,6.886c0.984,1.265,2.389,1.968,3.935,1.968 c0.984,0,2.108-0.281,2.951-0.984L57.518,44.941L57.518,44.941z"/></g><g><path fill="#bebacb" d="M43.5,51.5l5.586,7.635l5.414-2.698l-3.025-6.859l-5.341-8.292l-2.67,1.968 c-2.108,1.686-2.67,4.778-0.984,6.886C43.5,51.5,43.5,51.5,43.5,51.5z"/></g><g><path fill="#472b29" d="M54.005,65.457h-15.46c-1.936,0-3.511-1.575-3.511-3.512c0-1.936,1.575-3.511,3.511-3.511h9.154 l-5.452-7.368c-0.16-0.156-0.317-0.313-0.459-0.496c-1.876-2.345-1.386-5.875,1.098-7.863l8.974-6.66l-3.164-3.411h-8.688 c-1.436,0.185-2.896-0.93-3.084-2.44c-0.09-0.718,0.12-1.474,0.576-2.074c0.462-0.607,1.139-1.007,1.858-1.097l9.925-0.006 c0.614,0,1.195,0,1.794,0.399c0.105,0.076,8.012,5.883,9.769,7.138c2.477,1.769,2.3,4.821,2.291,4.95l0.002,7.546h7.029 c1.522,0,2.809,1.286,2.809,2.808c0,1.543-1.339,2.948-2.809,2.948h-9.838c-1.503,0-2.775-1.254-2.808-2.75l-0.586-3.81 l-4.577,3.413l4.791,10.542c0.683,1.066,0.672,2.48-0.033,3.537C56.422,64.783,55.2,65.457,54.005,65.457z M38.545,59.835 c-1.164,0-2.11,0.946-2.11,2.11s0.946,2.111,2.11,2.111h15.46c0.74,0,1.504-0.429,1.946-1.093c0.406-0.609,0.406-1.427,0.001-2.034 c-0.021-0.031-0.04-0.064-0.056-0.099L50.85,49.728c-0.136-0.3-0.045-0.654,0.22-0.852l5.963-4.446 c0.196-0.145,0.456-0.178,0.684-0.086c0.227,0.093,0.389,0.298,0.426,0.541l0.771,5.009c0.006,0.035,0.009,0.071,0.009,0.106 c0,0.736,0.671,1.407,1.408,1.407h9.838c0.697,0,1.408-0.781,1.408-1.548c0-0.736-0.671-1.407-1.408-1.407h-7.729 c-0.387,0-0.7-0.313-0.7-0.7v-8.293c0.003-0.068,0.124-2.456-1.707-3.765c-1.764-1.26-9.678-7.071-9.757-7.13 c-0.21-0.139-0.456-0.146-0.991-0.146h-9.838c-0.261,0.038-0.596,0.24-0.83,0.55c-0.237,0.312-0.348,0.695-0.303,1.053 c0.092,0.732,0.861,1.314,1.608,1.22l9.081-0.006c0.194,0,0.381,0.081,0.514,0.225l3.902,4.208c0.135,0.146,0.202,0.342,0.184,0.54 s-0.12,0.379-0.28,0.498l-9.58,7.11c-1.861,1.489-2.253,4.138-0.854,5.887c0.107,0.139,0.224,0.25,0.339,0.362l0.079,0.077 c0.025,0.025,0.05,0.053,0.071,0.082l6.264,8.481c0.156,0.213,0.186,0.502,0.066,0.737c-0.119,0.236-0.355,0.392-0.62,0.392H38.545 z"/></g><g><path fill="#472b29" d="M62.5,46.75h-5c-0.138,0-0.25-0.112-0.25-0.25s0.112-0.25,0.25-0.25h5c0.138,0,0.25,0.112,0.25,0.25 S62.638,46.75,62.5,46.75z"/></g><g><path fill="#472b29" d="M51.5,34.75c-0.049,0-0.098-0.014-0.141-0.043c-0.114-0.078-0.144-0.233-0.066-0.348l2.5-3.667 c0.079-0.115,0.234-0.144,0.348-0.066c0.114,0.078,0.144,0.233,0.066,0.348l-2.5,3.667C51.658,34.712,51.58,34.75,51.5,34.75z"/></g><g><path fill="#472b29" d="M51.5,49.75c-0.083,0-0.164-0.041-0.212-0.117L48.246,44.8c-0.073-0.116-0.038-0.271,0.079-0.345 c0.115-0.069,0.271-0.039,0.345,0.079l3.042,4.833c0.073,0.116,0.038,0.271-0.079,0.345C51.592,49.737,51.546,49.75,51.5,49.75z"/></g><g><path fill="#472b29" d="M47.5,43.375c-0.082,0-0.163-0.041-0.211-0.116l-1.375-2.167c-0.074-0.116-0.04-0.271,0.077-0.345 c0.114-0.074,0.27-0.041,0.345,0.077l1.375,2.167c0.074,0.116,0.04,0.271-0.077,0.345C47.593,43.362,47.546,43.375,47.5,43.375z"/></g><g><path fill="#472b29" d="M49.5,58.75c-0.1,0-0.193-0.06-0.232-0.157c-0.051-0.128,0.012-0.273,0.14-0.325l5-2 c0.126-0.049,0.274,0.012,0.325,0.14s-0.012,0.273-0.14,0.325l-5,2C49.563,58.744,49.531,58.75,49.5,58.75z"/></g></svg>