<svg xmlns="http://www.w3.org/2000/svg" xmlns:xlink="http://www.w3.org/1999/xlink" viewBox="0,0,256,256" width="100px" height="100px"><g fill="none" fill-rule="nonzero" stroke="none" stroke-width="1" stroke-linecap="butt" stroke-linejoin="miter" stroke-miterlimit="10" stroke-dasharray="" stroke-dashoffset="0" font-family="none" font-weight="none" font-size="none" text-anchor="none" style="mix-blend-mode: normal"><g transform="scale(2.56,2.56)"><path d="M87.215,56.71c1.135,-2.155 1.785,-4.605 1.785,-7.21c0,-6.621 -4.159,-12.257 -10.001,-14.478c0,-0.007 0.001,-0.014 0.001,-0.022c0,-11.598 -9.402,-21 -21,-21c-9.784,0 -17.981,6.701 -20.313,15.757c-1.476,-0.485 -3.049,-0.757 -4.687,-0.757c-7.692,0 -14.023,5.793 -14.89,13.252c-5.204,1.101 -9.11,5.717 -9.11,11.248c0,6.351 5.149,11.5 11.5,11.5c0.177,0 0.352,-0.012 0.526,-0.022c-0.004,0.175 -0.026,0.346 -0.026,0.522c0,11.322 9.178,20.5 20.5,20.5c6.437,0 12.175,-2.972 15.934,-7.614c2.178,2.225 5.206,3.614 8.566,3.614c4.65,0 8.674,-2.65 10.666,-6.518c1.052,0.335 2.171,0.518 3.334,0.518c6.075,0 11,-4.925 11,-11c0,-3.311 -1.47,-6.273 -3.785,-8.29z" fill="#c7ede6"></path><path d="M71.5,23h-10c-0.276,0 -0.5,-0.224 -0.5,-0.5c0,-0.276 0.224,-0.5 0.5,-0.5h10c0.276,0 0.5,0.224 0.5,0.5c0,0.276 -0.224,0.5 -0.5,0.5zM75.5,23h-2c-0.276,0 -0.5,-0.224 -0.5,-0.5c0,-0.276 0.224,-0.5 0.5,-0.5h2c0.276,0 0.5,0.224 0.5,0.5c0,0.276 -0.224,0.5 -0.5,0.5zM80.5,25h-10c-0.276,0 -0.5,-0.224 -0.5,-0.5c0,-0.276 0.224,-0.5 0.5,-0.5h10c0.276,0 0.5,0.224 0.5,0.5c0,0.276 -0.223,0.5 -0.5,0.5zM68.5,25h-1c-0.276,0 -0.5,-0.224 -0.5,-0.5c0,-0.276 0.224,-0.5 0.5,-0.5h1c0.276,0 0.5,0.224 0.5,0.5c0,0.276 -0.224,0.5 -0.5,0.5zM65.375,25h-1.875c-0.276,0 -0.5,-0.224 -0.5,-0.5c0,-0.276 0.224,-0.5 0.5,-0.5h1.875c0.276,0 0.5,0.224 0.5,0.5c0,0.276 -0.224,0.5 -0.5,0.5zM74.5,21h-5c-0.276,0 -0.5,-0.224 -0.5,-0.5c0,-0.276 0.224,-0.5 0.5,-0.5h5c0.276,0 0.5,0.224 0.5,0.5c0,0.276 -0.223,0.5 -0.5,0.5zM71.5,27h-2c-0.276,0 -0.5,-0.224 -0.5,-0.5c0,-0.276 0.224,-0.5 0.5,-0.5h2c0.276,0 0.5,0.224 0.5,0.5c0,0.276 -0.224,0.5 -0.5,0.5z" fill="#ffffff"></path><path d="M76.875,43.5c0,0 3.64,0 6.125,0c2.485,0 4.5,-2.015 4.5,-4.5c0,-2.333 -1.782,-4.229 -4.055,-4.455c0.022,-0.181 0.055,-0.358 0.055,-0.545c0,-2.485 -2.015,-4.5 -4.5,-4.5c-1.438,0 -2.703,0.686 -3.527,1.736c-0.14,-2.636 -2.302,-4.736 -4.973,-4.736c-2.761,0 -5,2.239 -5,5c0,0.446 0.077,0.87 0.187,1.282c-0.642,-0.777 -1.601,-1.282 -2.687,-1.282c-1.781,0 -3.234,1.335 -3.455,3.055c-0.181,-0.022 -0.358,-0.055 -0.545,-0.055c-2.485,0 -4.5,2.015 -4.5,4.5c0,2.485 2.015,4.5 4.5,4.5c2.485,0 9.5,0 9.5,0h5.375v0.5h3z" fill="#fdfcef"></path><path d="M70.5,26c-3.033,0 -5.5,2.467 -5.5,5.5c0,0.016 0,0.031 0,0.047c-0.602,-0.355 -1.29,-0.547 -2,-0.547c-1.831,0 -3.411,1.261 -3.858,3.005c-0.047,-0.003 -0.094,-0.005 -0.142,-0.005c-2.757,0 -5,2.243 -5,5c0,2.757 2.243,5 5,5h14.875c0.276,0 0.5,-0.224 0.5,-0.5c0,-0.276 -0.224,-0.5 -0.5,-0.5h-14.875c-2.206,0 -4,-1.794 -4,-4c0,-2.206 1.794,-4 4,-4c0.117,0 0.23,0.017 0.343,0.032l0.141,0.019c0.021,0.003 0.041,0.004 0.062,0.004c0.246,0 0.462,-0.185 0.495,-0.437c0.191,-1.493 1.463,-2.618 2.959,-2.618c0.885,0 1.723,0.401 2.301,1.1c0.098,0.118 0.241,0.182 0.386,0.182c0.078,0 0.156,-0.018 0.228,-0.056c0.209,-0.107 0.314,-0.346 0.254,-0.573c-0.115,-0.435 -0.169,-0.801 -0.169,-1.153c0,-2.481 2.019,-4.5 4.5,-4.5c2.381,0 4.347,1.872 4.474,4.263c0.011,0.208 0.15,0.387 0.349,0.45c0.05,0.016 0.101,0.024 0.152,0.024c0.15,0 0.296,-0.069 0.392,-0.192c0.771,-0.982 1.912,-1.545 3.133,-1.545c2.206,0 4,1.794 4,4c0,0.117 -0.017,0.23 -0.032,0.343l-0.019,0.141c-0.016,0.134 0.022,0.268 0.106,0.373c0.084,0.105 0.207,0.172 0.34,0.185c2.056,0.205 3.605,1.907 3.605,3.958c0,2.206 -1.794,4 -4,4h-6.125c-0.276,0 -0.5,0.224 -0.5,0.5c0,0.276 0.224,0.5 0.5,0.5h6.125c2.757,0 5,-2.243 5,-5c0,-2.397 -1.689,-4.413 -4.003,-4.877c0.002,-0.041 0.003,-0.082 0.003,-0.123c0,-2.757 -2.243,-5 -5,-5c-1.176,0 -2.293,0.416 -3.183,1.164c-0.598,-2.404 -2.762,-4.164 -5.317,-4.164z" fill="#472b29"></path><path d="M69,33c-1.403,0 -2.609,0.999 -2.913,2.341c-0.367,-0.222 -0.786,-0.341 -1.212,-0.341c-1.202,0 -2.198,0.897 -2.353,2.068c-0.203,-0.046 -0.396,-0.068 -0.585,-0.068c-1.529,0 -2.811,1.2 -2.918,2.732c-0.009,0.138 0.095,0.258 0.232,0.268c0.006,0 0.012,0 0.018,0c0.13,0 0.24,-0.101 0.249,-0.232c0.089,-1.271 1.151,-2.268 2.419,-2.268c0.229,0 0.47,0.042 0.738,0.127c0.022,0.007 0.045,0.01 0.067,0.01c0.055,0 0.11,-0.02 0.156,-0.054c0.064,-0.046 0.102,-0.128 0.102,-0.208c0,-1.034 0.841,-1.875 1.875,-1.875c0.447,0 0.885,0.168 1.231,0.473c0.047,0.041 0.106,0.063 0.165,0.063c0.032,0 0.063,-0.006 0.093,-0.019c0.088,-0.035 0.148,-0.117 0.155,-0.212c0.104,-1.293 1.193,-2.305 2.481,-2.305c0.208,0 0.425,0.034 0.682,0.107c0.023,0.007 0.047,0.01 0.07,0.01c0.109,0 0.207,-0.073 0.239,-0.182c0.038,-0.133 -0.039,-0.271 -0.172,-0.309c-0.302,-0.086 -0.563,-0.126 -0.819,-0.126zM82.883,34.5c-1.326,0 -2.508,0.897 -2.874,2.182c-0.038,0.133 0.039,0.271 0.172,0.309c0.024,0.006 0.047,0.009 0.069,0.009c0.109,0 0.209,-0.072 0.24,-0.182c0.305,-1.07 1.289,-1.818 2.393,-1.818c0.117,0 0.23,0.014 0.342,0.029c0.012,0.002 0.023,0.003 0.035,0.003c0.121,0 0.229,-0.092 0.246,-0.217c0.019,-0.137 -0.077,-0.263 -0.214,-0.281c-0.134,-0.018 -0.27,-0.034 -0.409,-0.034z" fill="#472b29"></path><path d="M15.405,51h-9.905c-0.276,0 -0.5,-0.224 -0.5,-0.5c0,-0.276 0.224,-0.5 0.5,-0.5h9.905c0.276,0 0.5,0.224 0.5,0.5c0,0.276 -0.223,0.5 -0.5,0.5zM18.5,51h-1c-0.276,0 -0.5,-0.224 -0.5,-0.5c0,-0.276 0.224,-0.5 0.5,-0.5h1c0.276,0 0.5,0.224 0.5,0.5c0,0.276 -0.223,0.5 -0.5,0.5zM23.491,53h-8.991c-0.276,0 -0.5,-0.224 -0.5,-0.5c0,-0.276 0.224,-0.5 0.5,-0.5h8.991c0.276,0 0.5,0.224 0.5,0.5c0,0.276 -0.224,0.5 -0.5,0.5zM12.5,53h-1c-0.276,0 -0.5,-0.224 -0.5,-0.5c0,-0.276 0.224,-0.5 0.5,-0.5h1c0.276,0 0.5,0.224 0.5,0.5c0,0.276 -0.223,0.5 -0.5,0.5zM9.5,53h-2c-0.276,0 -0.5,-0.224 -0.5,-0.5c0,-0.276 0.224,-0.5 0.5,-0.5h2c0.276,0 0.5,0.224 0.5,0.5c0,0.276 -0.223,0.5 -0.5,0.5zM15.5,55h-2c-0.276,0 -0.5,-0.224 -0.5,-0.5c0,-0.276 0.224,-0.5 0.5,-0.5h2c0.276,0 0.5,0.224 0.5,0.5c0,0.276 -0.224,0.5 -0.5,0.5zM18.5,46c-0.177,0 -0.823,0 -1,0c-0.276,0 -0.5,0.224 -0.5,0.5c0,0.276 0.224,0.5 0.5,0.5c0.177,0 0.823,0 1,0c0.276,0 0.5,-0.224 0.5,-0.5c0,-0.276 -0.224,-0.5 -0.5,-0.5zM18.5,48c-0.177,0 -4.823,0 -5,0c-0.276,0 -0.5,0.224 -0.5,0.5c0,0.276 0.224,0.5 0.5,0.5c0.177,0 4.823,0 5,0c0.276,0 0.5,-0.224 0.5,-0.5c0,-0.276 -0.224,-0.5 -0.5,-0.5zM23.5,50c-0.177,0 -2.823,0 -3,0c-0.276,0 -0.5,0.224 -0.5,0.5c0,0.276 0.224,0.5 0.5,0.5c0.177,0 2.823,0 3,0c0.276,0 0.5,-0.224 0.5,-0.5c0,-0.276 -0.224,-0.5 -0.5,-0.5z" fill="#ffffff"></path><path d="M80.207,50.308c0,0 -13.074,17.627 -29.206,17.627c-16.132,0 -29.214,-17.627 -29.214,-17.627c0,0 13.083,-17.627 29.214,-17.627c16.131,0 29.206,17.627 29.206,17.627z" fill="#e1dfcf"></path><path d="M51.001,68.724c-16.345,0 -29.305,-17.216 -29.847,-17.948c-0.205,-0.279 -0.205,-0.657 0,-0.937c0.542,-0.731 13.502,-17.948 29.847,-17.948c16.337,0 29.296,17.216 29.839,17.948c0.214,0.279 0.214,0.657 0,0.937c-0.543,0.74 -13.502,17.948 -29.839,17.948zM22.789,50.308c2.211,2.777 14.127,16.838 28.212,16.838c14.093,0 26.001,-14.061 28.212,-16.838c-2.219,-2.77 -14.135,-16.838 -28.212,-16.838c-14.093,0 -26.001,14.068 -28.212,16.838z" fill="#472b29"></path><path d="M65.431,50.308c0,7.971 -6.459,14.439 -14.43,14.439c-7.979,0 -14.439,-6.467 -14.439,-14.439c0,-7.972 6.459,-14.43 14.439,-14.43c7.971,-0.001 14.43,6.459 14.43,14.43z" fill="#a3caef"></path><path d="M55.159,50.308c0,2.326 -1.882,4.208 -4.207,4.208c-2.325,0 -4.208,-1.882 -4.208,-4.208c0,-2.317 1.882,-4.207 4.208,-4.207c2.326,0 4.207,1.889 4.207,4.207z" fill="#78a0cf"></path><path d="M50.952,55.14c-2.671,0 -4.832,-2.161 -4.832,-4.832c0,-2.663 2.169,-4.832 4.832,-4.832c2.663,0 4.832,2.169 4.832,4.832c0,2.671 -2.162,4.832 -4.832,4.832zM50.952,46.733c-1.972,0 -3.575,1.602 -3.575,3.575c0,1.972 1.602,3.575 3.575,3.575c1.972,0 3.575,-1.602 3.575,-3.575c-0.001,-1.973 -1.603,-3.575 -3.575,-3.575zM64.997,54.229c-0.115,0.045 -0.245,0.051 -0.379,0.023c-0.339,-0.08 -0.543,-0.424 -0.463,-0.764c0.16,-0.679 0.27,-1.374 0.331,-2.058c0.032,-0.374 0.048,-0.741 0.046,-1.11c0.004,-0.354 0.285,-0.63 0.636,-0.634c0.343,-0.001 0.63,0.285 0.623,0.631c0.009,0.411 -0.011,0.815 -0.049,1.217c-0.06,0.755 -0.183,1.507 -0.361,2.255c-0.052,0.205 -0.2,0.368 -0.384,0.44z" fill="#472b29"></path><path d="M56.341,64.101c-7.61,2.946 -16.196,-0.841 -19.142,-8.451c-2.943,-7.602 0.852,-16.192 8.462,-19.138c7.602,-2.943 16.189,0.844 19.135,8.454c0.128,0.33 -0.032,0.691 -0.362,0.819c-0.322,0.125 -0.691,-0.032 -0.819,-0.362c-2.694,-6.958 -10.547,-10.422 -17.505,-7.728c-6.951,2.691 -10.425,10.539 -7.731,17.498c2.694,6.959 10.55,10.429 17.501,7.738c2.529,-0.979 4.678,-2.666 6.22,-4.875c0.377,-0.551 0.724,-1.135 1.02,-1.734c0.154,-0.307 0.536,-0.437 0.842,-0.282c0.317,0.159 0.444,0.533 0.293,0.847c-0.328,0.656 -0.706,1.295 -1.12,1.888c-1.69,2.416 -4.035,4.258 -6.794,5.326z" fill="#472b29"></path><path d="M65.303,49.123c-0.061,0.024 -0.118,0.037 -0.177,0.042c-0.348,0.011 -0.645,-0.209 -0.656,-0.557l0.003,-0.107c-0.019,-0.345 0.245,-0.641 0.601,-0.656c0.348,-0.011 0.647,0.261 0.659,0.609c0.004,0.289 -0.177,0.571 -0.43,0.669zM50.952,46.421c-0.173,0 -0.312,-0.14 -0.312,-0.32v-9.952c0,-0.173 0.14,-0.32 0.312,-0.32c0.172,0 0.312,0.148 0.312,0.32v9.951c0,0.181 -0.14,0.321 -0.312,0.321z" fill="#472b29"></path><g fill="#472b29"><path d="M50.952,64.787c-0.173,0 -0.312,-0.14 -0.312,-0.312v-9.96c0,-0.181 0.14,-0.32 0.312,-0.32c0.172,0 0.312,0.14 0.312,0.32v9.96c0,0.173 -0.14,0.312 -0.312,0.312z"></path></g><g fill="#472b29"><path d="M65.111,50.628h-9.952c-0.181,0 -0.32,-0.148 -0.32,-0.32c0,-0.172 0.14,-0.312 0.32,-0.312h9.952c0.181,0 0.32,0.14 0.32,0.312c0,0.172 -0.139,0.32 -0.32,0.32z"></path></g><g fill="#472b29"><path d="M46.752,50.628h-9.96c-0.173,0 -0.32,-0.148 -0.32,-0.32c0,-0.172 0.148,-0.312 0.32,-0.312h9.96c0.173,0 0.312,0.14 0.312,0.312c0,0.172 -0.139,0.32 -0.312,0.32z"></path></g><g fill="#472b29"><path d="M53.927,47.653c-0.082,0 -0.164,-0.033 -0.222,-0.09c-0.123,-0.123 -0.123,-0.329 0,-0.452l7.043,-7.034c0.123,-0.131 0.32,-0.131 0.444,0c0.123,0.123 0.123,0.32 0,0.444l-7.043,7.043c-0.066,0.057 -0.14,0.089 -0.222,0.089z"></path></g><g fill="#472b29"><path d="M40.934,60.637c-0.082,0 -0.156,-0.033 -0.222,-0.09c-0.123,-0.123 -0.123,-0.32 0,-0.444l7.043,-7.043c0.123,-0.123 0.32,-0.123 0.444,0c0.131,0.123 0.131,0.32 0,0.444l-7.034,7.043c-0.066,0.058 -0.149,0.09 -0.231,0.09z"></path></g><g fill="#472b29"><path d="M60.969,60.637c-0.082,0 -0.164,-0.033 -0.222,-0.09l-7.043,-7.043c-0.123,-0.123 -0.123,-0.32 0,-0.444c0.123,-0.123 0.32,-0.123 0.444,0l7.043,7.043c0.123,0.123 0.123,0.32 0,0.444c-0.066,0.058 -0.14,0.09 -0.222,0.09z"></path></g><g fill="#472b29"><path d="M47.977,47.653c-0.082,0 -0.156,-0.033 -0.222,-0.09l-7.043,-7.043c-0.123,-0.123 -0.123,-0.32 0,-0.444c0.123,-0.131 0.32,-0.131 0.452,0l7.034,7.034c0.131,0.123 0.131,0.329 0,0.452c-0.057,0.059 -0.139,0.091 -0.221,0.091z"></path></g><g fill="#472b29"><path d="M52.505,46.848c-0.041,0 -0.082,-0.008 -0.123,-0.025c-0.156,-0.074 -0.23,-0.255 -0.164,-0.419l3.895,-9.163c0.074,-0.156 0.255,-0.23 0.419,-0.164c0.156,0.066 0.238,0.255 0.164,0.411l-3.895,9.163c-0.05,0.123 -0.173,0.197 -0.296,0.197z"></path></g><g fill="#472b29"><path d="M45.314,63.752c-0.041,0 -0.082,-0.008 -0.123,-0.033c-0.164,-0.066 -0.238,-0.255 -0.173,-0.411l3.903,-9.163c0.066,-0.156 0.255,-0.23 0.411,-0.164c0.164,0.066 0.238,0.255 0.173,0.411l-3.903,9.163c-0.049,0.123 -0.164,0.197 -0.288,0.197z"></path></g><g fill="#472b29"><path d="M63.895,56.266c-0.041,0 -0.09,-0.008 -0.123,-0.025l-9.163,-3.903c-0.164,-0.066 -0.238,-0.255 -0.173,-0.411c0.074,-0.164 0.255,-0.238 0.419,-0.173l9.155,3.903c0.164,0.066 0.238,0.255 0.173,0.411c-0.05,0.124 -0.173,0.198 -0.288,0.198z"></path></g><g fill="#472b29"><path d="M46.991,49.067c-0.041,0 -0.082,-0.008 -0.123,-0.025l-9.163,-3.895c-0.156,-0.074 -0.23,-0.255 -0.164,-0.419c0.066,-0.156 0.255,-0.23 0.411,-0.164l9.163,3.895c0.164,0.074 0.238,0.255 0.173,0.419c-0.059,0.115 -0.174,0.189 -0.297,0.189z"></path></g><g fill="#472b29"><path d="M54.765,49.141c-0.131,0 -0.247,-0.074 -0.296,-0.197c-0.066,-0.156 0.016,-0.345 0.173,-0.411l9.237,-3.714c0.173,-0.066 0.353,0.008 0.411,0.173c0.066,0.156 -0.008,0.345 -0.173,0.411l-9.237,3.723c-0.041,0.015 -0.082,0.015 -0.115,0.015z"></path></g><g fill="#472b29"><path d="M37.729,56.003c-0.131,0 -0.247,-0.074 -0.296,-0.197c-0.066,-0.156 0.008,-0.345 0.173,-0.411l9.237,-3.714c0.173,-0.066 0.353,0.008 0.411,0.173c0.066,0.164 -0.008,0.345 -0.173,0.411l-9.237,3.723c-0.041,0.015 -0.082,0.015 -0.115,0.015z"></path></g><g fill="#472b29"><path d="M56.154,63.851c-0.123,0 -0.247,-0.074 -0.296,-0.197l-3.714,-9.237c-0.066,-0.164 0.008,-0.345 0.173,-0.411c0.164,-0.058 0.345,0.016 0.411,0.173l3.723,9.245c0.066,0.156 -0.016,0.345 -0.181,0.411c-0.034,0.007 -0.075,0.016 -0.116,0.016z"></path></g><g fill="#472b29"><path d="M49.292,46.815c-0.131,0 -0.247,-0.074 -0.296,-0.197l-3.723,-9.237c-0.066,-0.164 0.016,-0.345 0.181,-0.411c0.165,-0.066 0.345,0.008 0.403,0.173l3.723,9.237c0.066,0.164 -0.008,0.345 -0.173,0.411c-0.041,0.016 -0.074,0.024 -0.115,0.024z"></path></g><g><path d="M36.5,71.5c0,0 1.567,0 3.5,0c1.933,0 3.5,-1.567 3.5,-3.5c0,-1.781 -1.335,-3.234 -3.055,-3.455c0.028,-0.179 0.055,-0.358 0.055,-0.545c0,-1.933 -1.567,-3.5 -3.5,-3.5c-1.032,0 -1.95,0.455 -2.59,1.165c-0.384,-1.808 -1.987,-3.165 -3.91,-3.165c-2.209,0 -4,1.791 -4,4c0,0.191 0.03,0.374 0.056,0.558c-0.428,-0.344 -0.964,-0.558 -1.556,-0.558c-1.228,0 -2.245,0.887 -2.455,2.055c-0.179,-0.028 -0.358,-0.055 -0.545,-0.055c-1.933,0 -3.5,1.567 -3.5,3.5c0,1.933 1.567,3.5 3.5,3.5c1.933,0 7.5,0 7.5,0v0.5h7z" fill="#fdfcef"></path><path d="M38.25,67c-0.138,0 -0.25,-0.112 -0.25,-0.25c0,-1.223 0.995,-2.218 2.218,-2.218c0.034,0.009 0.737,-0.001 1.244,0.136c0.133,0.036 0.212,0.173 0.176,0.306c-0.036,0.134 -0.173,0.213 -0.306,0.176c-0.444,-0.12 -1.1,-0.12 -1.113,-0.118c-0.948,0 -1.719,0.771 -1.719,1.718c0,0.138 -0.112,0.25 -0.25,0.25zM31.5,71c-0.27614,0 -0.5,0.22386 -0.5,0.5c0,0.27614 0.22386,0.5 0.5,0.5c0.27614,0 0.5,-0.22386 0.5,-0.5c0,-0.27614 -0.22386,-0.5 -0.5,-0.5z" fill="#472b29"></path><path d="M40,72h-3.5c-0.276,0 -0.5,-0.224 -0.5,-0.5c0,-0.276 0.224,-0.5 0.5,-0.5h3.5c1.654,0 3,-1.346 3,-3c0,-1.496 -1.125,-2.768 -2.618,-2.959c-0.134,-0.018 -0.255,-0.088 -0.336,-0.196c-0.081,-0.108 -0.115,-0.244 -0.094,-0.377c0.023,-0.154 0.048,-0.308 0.048,-0.468c0,-1.654 -1.346,-3 -3,-3c-0.85,0 -1.638,0.355 -2.219,1c-0.125,0.139 -0.321,0.198 -0.5,0.148c-0.182,-0.049 -0.321,-0.195 -0.36,-0.379c-0.341,-1.604 -1.78,-2.769 -3.421,-2.769c-1.93,0 -3.5,1.57 -3.5,3.5c0,0.143 0.021,0.28 0.041,0.418c0.029,0.203 -0.063,0.438 -0.242,0.54c-0.179,0.102 -0.396,0.118 -0.556,-0.01c-0.365,-0.293 -0.794,-0.448 -1.243,-0.448c-0.966,0 -1.792,0.691 -1.963,1.644c-0.048,0.267 -0.296,0.446 -0.569,0.405c-0.154,-0.024 -0.308,-0.049 -0.468,-0.049c-1.654,0 -3,1.346 -3,3c0,1.654 1.346,3 3,3h7.5c0.276,0 0.5,0.224 0.5,0.5c0,0.276 -0.224,0.5 -0.5,0.5h-7.5c-2.206,0 -4,-1.794 -4,-4c0,-2.206 1.794,-4 4,-4c0.059,0 0.116,0.002 0.174,0.006c0.414,-1.186 1.537,-2.006 2.826,-2.006c0.349,0 0.689,0.061 1.011,0.18c0.165,-2.333 2.115,-4.18 4.489,-4.18c1.831,0 3.466,1.127 4.153,2.774c0.68,-0.498 1.502,-0.774 2.347,-0.774c2.206,0 4,1.794 4,4c0,0.048 -0.001,0.095 -0.004,0.142c1.743,0.448 3.004,2.027 3.004,3.858c0,2.206 -1.794,4 -4,4z" fill="#472b29"></path><path d="M34.5,71c-0.159,0 -0.841,0 -1,0c-0.276,0 -0.5,0.224 -0.5,0.5c0,0.276 0.224,0.5 0.5,0.5c0.159,0 0.841,0 1,0c0.276,0 0.5,-0.224 0.5,-0.5c0,-0.276 -0.224,-0.5 -0.5,-0.5z" fill="#472b29"></path></g><g><path d="M73.099,74.417c0.128,0 0.256,-0.049 0.354,-0.146c0.195,-0.195 0.195,-0.512 0,-0.707l-2.785,-2.785c-0.195,-0.195 -0.512,-0.195 -0.707,0c-0.195,0.195 -0.195,0.512 0,0.707l2.785,2.785c0.097,0.097 0.225,0.146 0.353,0.146z" fill="#472b29"></path><path d="M84.969,85.917l0.131,-0.131c1.058,-1.058 1.058,-2.79 0,-3.848l-8.088,-8.088c-1.058,-1.058 -2.79,-1.058 -3.848,0l-0.131,0.131c-1.058,1.058 -1.058,2.79 0,3.848l8.088,8.088c1.059,1.059 2.79,1.059 3.848,0z" fill="#88ae45"></path><path d="M80.768,86.271l-8.088,-8.088c-0.606,-0.606 -0.94,-1.415 -0.94,-2.277c0,-0.863 0.334,-1.672 0.94,-2.277l0.131,-0.131c1.212,-1.213 3.343,-1.213 4.555,0l8.088,8.088c0.606,0.605 0.94,1.415 0.94,2.277c0,0.862 -0.334,1.672 -0.939,2.276l-0.13,0.131c0,0.001 0,0.001 0,0.001c-0.628,0.628 -1.453,0.941 -2.278,0.941c-0.825,0 -1.651,-0.313 -2.279,-0.941zM84.746,85.433c0.417,-0.417 0.647,-0.975 0.647,-1.57c0,-0.595 -0.229,-1.153 -0.647,-1.57l-8.088,-8.088c-0.835,-0.836 -2.306,-0.836 -3.141,0l-0.131,0.131c-0.417,0.417 -0.647,0.975 -0.647,1.57c0,0.595 0.229,1.152 0.647,1.57l8.088,8.088c0.866,0.865 2.274,0.865 3.141,0z" fill="#472b29"></path><path d="M73.395,74.201c0.923,-0.923 2.374,-0.984 3.223,-0.135l0.154,0.154l-0.336,0.336l-3.022,3.022l-0.154,-0.154c-0.849,-0.849 -0.789,-2.299 0.135,-3.223z" fill="#d1dc82"></path><path d="M73.408,78.358c0.096,0 0.192,-0.036 0.265,-0.109l3.581,-3.581c0.146,-0.146 0.146,-0.385 0,-0.531c-0.146,-0.146 -0.384,-0.146 -0.53,0l-3.581,3.581c-0.146,0.146 -0.146,0.385 0,0.531c0.074,0.073 0.169,0.109 0.265,0.109z" fill="#472b29"></path><path transform="translate(-26.06776,61.77641) rotate(-45.001)" d="M61.535,52.506c-5.43835,0 -9.847,4.40865 -9.847,9.847c0,5.43835 4.40865,9.847 9.847,9.847c5.43835,0 9.847,-4.40865 9.847,-9.847c0,-5.43835 -4.40865,-9.847 -9.847,-9.847z" fill="#77cbd2" opacity="0.74"></path><path d="M52.808,71.131c4.834,4.834 12.672,4.834 17.506,0c4.834,-4.834 4.834,-12.672 0,-17.506c-4.834,-4.834 -12.672,-4.834 -17.506,0c-4.834,4.835 -4.834,12.672 0,17.506zM54.598,55.416c3.845,-3.845 10.08,-3.845 13.925,0c3.845,3.845 3.845,10.08 0,13.925c-3.845,3.845 -10.08,3.845 -13.925,0c-3.845,-3.845 -3.845,-10.08 0,-13.925z" fill="#fdfcef"></path><path d="M52.454,71.485c-5.021,-5.021 -5.021,-13.191 0,-18.213v0c5.021,-5.021 13.191,-5.021 18.213,0c5.022,5.021 5.021,13.191 0,18.213c-2.511,2.511 -5.808,3.766 -9.106,3.766c-3.298,0 -6.596,-1.255 -9.107,-3.766zM53.161,53.979v0c-4.631,4.632 -4.631,12.167 0,16.799c4.632,4.63 12.168,4.631 16.799,0c4.631,-4.632 4.631,-12.167 0,-16.799c-2.315,-2.315 -5.357,-3.474 -8.399,-3.474c-3.042,0.001 -6.084,1.159 -8.4,3.474zM54.245,69.695v0c-4.034,-4.034 -4.034,-10.599 0,-14.633c4.034,-4.033 10.598,-4.033 14.632,0c4.034,4.034 4.034,10.599 0,14.633c-2.017,2.017 -4.667,3.025 -7.316,3.025c-2.65,0 -5.299,-1.008 -7.316,-3.025zM54.952,55.769c-3.644,3.645 -3.644,9.574 0,13.219c3.644,3.645 9.574,3.643 13.218,0c3.645,-3.645 3.645,-9.574 0,-13.219c-1.822,-1.822 -4.215,-2.732 -6.609,-2.732c-2.393,0 -4.787,0.911 -6.609,2.732zM54.589,69.341h0.01zM83.667,86.761c0.053,0 0.102,-0.034 0.119,-0.087l1.378,-4.28c0.021,-0.065 -0.015,-0.136 -0.081,-0.157c-0.067,-0.019 -0.136,0.016 -0.157,0.081l-1.378,4.28c-0.021,0.065 0.015,0.136 0.081,0.157c0.013,0.004 0.026,0.006 0.038,0.006zM82.795,86.465c0.054,0 0.104,-0.035 0.12,-0.089l1.561,-5.244c0.02,-0.066 -0.018,-0.137 -0.084,-0.156c-0.066,-0.016 -0.136,0.019 -0.155,0.084l-1.561,5.244c-0.02,0.066 0.018,0.137 0.084,0.156c0.011,0.003 0.023,0.005 0.035,0.005z" fill="#472b29"></path><g fill="#472b29"><path d="M82.269,84.622c0.054,0 0.104,-0.035 0.12,-0.089l1.307,-4.39c0.02,-0.066 -0.018,-0.137 -0.084,-0.156c-0.065,-0.015 -0.136,0.019 -0.155,0.084l-1.307,4.39c-0.02,0.066 0.018,0.137 0.084,0.156c0.011,0.003 0.024,0.005 0.035,0.005z"></path></g><g fill="#472b29"><path d="M81.737,82.697c0.054,0 0.104,-0.035 0.12,-0.089l0.921,-3.095c0.02,-0.066 -0.018,-0.137 -0.084,-0.156c-0.067,-0.015 -0.136,0.019 -0.155,0.084l-0.921,3.095c-0.02,0.066 0.018,0.137 0.084,0.156c0.011,0.003 0.023,0.005 0.035,0.005z"></path></g></g></g></g></svg>