<svg xmlns="http://www.w3.org/2000/svg"  viewBox="0 0 100 100" width="100px" height="100px"><circle cx="50" cy="50" r="37" fill="#e4e4f9"/><circle cx="83" cy="15" r="4" fill="#f1bc19"/><circle cx="87" cy="24" r="2" fill="#9f8066"/><circle cx="81" cy="76" r="2" fill="#fbcd59"/><circle cx="15" cy="63" r="4" fill="#fbcd59"/><circle cx="25" cy="87" r="2" fill="#9f8066"/><circle cx="19.5" cy="43.5" r="2.5" fill="#fff"/><circle cx="79.5" cy="33.5" r="1.5" fill="#fff"/><circle cx="77" cy="13" r="1" fill="#f1bc19"/><g><path fill="#ef9922" d="M41.367,72.3c-4.196-6.025-8.707-10.258-14.529-13.627c1.137-3.532,2.477-6.38,4.194-8.926 l0.284-0.421l-0.312-0.401C27.7,44.68,27.7,34.393,27.7,30c0-3.987,1.935-3.987,2.571-3.987c1.126,0,2.637,0.549,4.368,1.587 c3.743,2.246,8.147,7.481,9.867,9.627l0.3,0.375l0.458-0.145C46.855,36.955,48.449,36.7,50,36.7c1.551,0,3.145,0.254,4.735,0.757 l0.457,0.145l0.3-0.374c1.721-2.147,6.126-7.382,9.868-9.627c1.731-1.039,3.241-1.587,4.368-1.587c0.636,0,2.571,0,2.571,3.987 c0,4.393,0,14.68-3.305,18.925l-0.312,0.401l0.284,0.421c1.783,2.644,3.124,5.491,4.199,8.923 c-5.826,3.371-10.338,7.603-14.534,13.63H41.367z"/><path fill="#472b29" d="M69.729,26.713c0.512,0,1.871,0,1.871,3.287c0,4.321,0,14.44-3.157,18.495l-0.624,0.801 l0.568,0.842c1.652,2.448,2.917,5.08,3.942,8.211c-5.588,3.32-9.979,7.461-14.06,13.251H50h-8.269 c-4.079-5.787-8.468-9.927-14.052-13.246c1.078-3.222,2.341-5.855,3.934-8.216l0.568-0.842l-0.624-0.801 C28.4,44.44,28.4,34.321,28.4,30c0-3.287,1.36-3.287,1.871-3.287c0.697,0,1.959,0.258,4.008,1.488 c3.646,2.188,7.985,7.348,9.681,9.464l0.6,0.748l0.914-0.289C46.998,37.644,48.52,37.4,50,37.4s3.002,0.244,4.525,0.725 l0.914,0.289l0.6-0.748c1.696-2.117,6.035-7.276,9.681-9.464C67.77,26.971,69.031,26.713,69.729,26.713 M69.729,25.313 c-1.26,0-2.854,0.563-4.729,1.688c-3.8,2.28-8.171,7.44-10.053,9.79C53.344,36.284,51.698,36,50,36s-3.344,0.284-4.947,0.79 C43.171,34.44,38.8,29.28,35,27c-1.875-1.125-3.469-1.688-4.729-1.688C28.172,25.313,27,26.875,27,30 c0,4.757,0.008,14.931,3.452,19.355C28.524,52.213,27.125,55.375,26,59c6.34,3.571,10.882,8.012,15,14h9h9 c4.118-5.988,8.66-10.429,15-14c-1.125-3.75-2.524-6.787-4.452-9.645C72.992,44.931,73,34.757,73,30 C73,26.875,71.828,25.313,69.729,25.313L69.729,25.313z"/><path fill="#edf7f5" d="M25,58.063c0,0,0,3.194,4,5.323c-2,0-4,0-4,0s6.833,8.517,20.417,10.114 C45,69.774,36,56.998,25,58.063z"/><path fill="#472b29" d="M45.417,74c-0.02,0-0.039-0.001-0.059-0.003C31.729,72.395,24.68,63.785,24.61,63.698 c-0.12-0.149-0.144-0.355-0.061-0.528c0.083-0.174,0.258-0.284,0.451-0.284h2.299c-2.763-2.141-2.799-4.699-2.799-4.823 c0-0.258,0.195-0.473,0.452-0.498c11.11-1.071,20.483,11.598,20.962,15.88c0.017,0.151-0.037,0.303-0.145,0.41 C45.675,73.948,45.548,74,45.417,74z M26.135,63.886c2.053,2.095,8.327,7.608,18.643,9.028 c-1.196-3.941-9.266-14.967-19.225-14.393c0.167,0.898,0.856,2.919,3.681,4.423c0.203,0.107,0.306,0.34,0.25,0.563 c-0.056,0.223-0.256,0.379-0.485,0.379H26.135z"/><path fill="#edf7f5" d="M75,58.063c0,0,0,3.194-4,5.323c2,0,4,0,4,0S68.167,71.903,54.583,73.5 C55,69.774,64,56.998,75,58.063z"/><path fill="#472b29" d="M54.583,74c-0.131,0-0.258-0.052-0.353-0.146c-0.108-0.107-0.161-0.259-0.145-0.41 c0.479-4.282,9.864-16.934,20.962-15.88c0.256,0.025,0.452,0.24,0.452,0.498c0,0.124-0.036,2.683-2.799,4.823H75 c0.192,0,0.368,0.11,0.451,0.284c0.083,0.173,0.06,0.379-0.061,0.528c-0.07,0.087-7.12,8.696-20.748,10.299 C54.623,73.999,54.603,74,54.583,74z M73.694,58.5c-9.62,0-17.306,10.572-18.472,14.415c10.334-1.423,16.597-6.935,18.645-9.029 H71c-0.229,0-0.43-0.156-0.485-0.379c-0.055-0.223,0.048-0.455,0.25-0.563c2.825-1.504,3.514-3.524,3.681-4.423 C74.194,58.507,73.943,58.5,73.694,58.5z"/><path fill="#fdfcef" d="M32.71,29c0,0,4.517,2,6.324,9s-4.517,2-4.517,2s0,9-1.807,5S30,34,30,31S31.807,28,32.71,29z"/><path fill="#fdfcef" d="M67.29,29c0,0-4.517,2-6.324,9s4.517,2,4.517,2s0,9,1.807,5S70,34,70,31S68.193,28,67.29,29z"/><path fill="#472b29" d="M33.523,46.275c-0.45,0-0.791-0.618-1.041-1.172c-0.612-1.354-1.159-3.121-1.625-5.249 c-0.03-0.135,0.056-0.269,0.19-0.298c0.133-0.027,0.269,0.055,0.298,0.19c0.459,2.095,0.995,3.828,1.593,5.15 c0.38,0.843,0.587,0.878,0.589,0.878c0.393-0.113,0.74-2.811,0.74-5.775c0-0.096,0.055-0.183,0.141-0.225 c0.086-0.041,0.189-0.03,0.264,0.029c0.8,0.632,3.076,2.141,3.996,1.542c0.544-0.355,0.587-1.49,0.125-3.283 c-0.034-0.134,0.046-0.27,0.18-0.305c0.136-0.036,0.271,0.046,0.305,0.18c0.537,2.079,0.426,3.331-0.336,3.827 c-1.133,0.738-3.263-0.614-4.176-1.267c-0.022,1.988-0.193,5.563-1.133,5.766C33.595,46.271,33.559,46.275,33.523,46.275z"/><path fill="#472b29" d="M38.324,36.051c-0.1,0-0.194-0.06-0.232-0.158c-1.999-5.063-5.448-6.649-5.482-6.665 c-0.66-0.272-1.346-0.516-1.783-0.226C30.444,29.258,30.25,29.931,30.25,31c0,0.138-0.112,0.25-0.25,0.25s-0.25-0.112-0.25-0.25 c0-1.264,0.261-2.054,0.798-2.413c0.64-0.428,1.467-0.145,2.257,0.182c0.155,0.068,3.672,1.675,5.75,6.94 c0.051,0.128-0.012,0.273-0.141,0.324C38.385,36.046,38.354,36.051,38.324,36.051z"/><path fill="#472b29" d="M30.635,37.628c-0.12,0-0.226-0.086-0.246-0.209c-0.236-1.413-0.419-2.858-0.53-4.178 c-0.012-0.138,0.09-0.259,0.228-0.27c0.133-0.011,0.258,0.09,0.27,0.228c0.11,1.308,0.292,2.738,0.525,4.138 c0.023,0.136-0.069,0.265-0.206,0.288C30.663,37.627,30.649,37.628,30.635,37.628z"/><path fill="#472b29" d="M68.59,41.358c-0.02,0-0.041-0.002-0.062-0.008c-0.134-0.034-0.215-0.17-0.181-0.304 c0.326-1.282,0.611-2.688,0.846-4.179c0.021-0.137,0.152-0.229,0.286-0.208c0.136,0.021,0.229,0.15,0.208,0.286 c-0.238,1.506-0.526,2.927-0.856,4.224C68.803,41.283,68.702,41.358,68.59,41.358z"/><path fill="#472b29" d="M66.477,46.275c-0.035,0-0.071-0.004-0.107-0.012c-0.94-0.202-1.111-3.778-1.133-5.766 c-0.913,0.653-3.045,2.003-4.176,1.267c-0.763-0.497-0.873-1.749-0.337-3.827c1.816-7.036,6.276-9.083,6.465-9.166 c0.592-0.326,1.464-0.641,2.154-0.235c0.602,0.356,0.907,1.185,0.907,2.464c0,1.001-0.097,2.375-0.274,3.867 c-0.016,0.137-0.145,0.242-0.277,0.219c-0.137-0.016-0.235-0.14-0.219-0.277c0.174-1.473,0.271-2.826,0.271-3.808 c0-1.074-0.229-1.777-0.662-2.033c-0.512-0.304-1.271,0.027-1.678,0.252c-0.063,0.029-4.451,2.056-6.203,8.843 c-0.463,1.793-0.419,2.929,0.125,3.283c0.923,0.601,3.196-0.91,3.995-1.542c0.076-0.059,0.178-0.07,0.264-0.029 c0.086,0.042,0.141,0.129,0.141,0.225c0,2.963,0.347,5.662,0.742,5.775c0,0,0.207-0.036,0.587-0.878 c0.251-0.555,0.497-1.199,0.729-1.913c0.043-0.131,0.184-0.202,0.315-0.16c0.131,0.043,0.203,0.184,0.16,0.315 c-0.239,0.731-0.491,1.392-0.75,1.964C67.267,45.657,66.927,46.275,66.477,46.275z"/><path fill="#edf7f5" d="M56.846,68.918c-1.502-1.067-4.31-1.513-6.257-1.341c-0.149,0.013-0.297-0.004-0.448-0.004v0.008 c-0.048,0.001-0.094,0.002-0.142,0.003c-0.047-0.001-0.094-0.002-0.142-0.003v-0.008c-0.151,0-0.299,0.018-0.448,0.004 c-1.947-0.172-4.755,0.274-6.257,1.341c-1.756,1.345-1.437,5.547,0.479,7.565c1.437,1.513,3.831,2.017,5.747,2.017 c0.19,0,0.401-0.008,0.621-0.02c0.219,0.012,0.431,0.02,0.62,0.02c1.916,0,4.31-0.504,5.747-2.017 C58.283,74.466,58.602,70.263,56.846,68.918z"/><path fill="#472b29" d="M50.621,79c-0.198,0-0.418-0.009-0.647-0.021C49.798,78.991,49.577,79,49.379,79 c-1.217,0-4.248-0.212-6.11-2.173c-1.2-1.265-1.903-3.432-1.749-5.394c0.103-1.3,0.574-2.335,1.329-2.912 c1.653-1.174,4.634-1.615,6.605-1.441c0.073,0.004,0.149,0.003,0.225-0.002l0.175-0.005c0.077-0.01,0.091,0.006,0.135,0.018 v-0.006l0.002,0.007c0.003,0.001,0.007,0.002,0.011,0.003c0.045-0.015,0.074-0.041,0.143-0.021l0.175,0.005 c0.076,0.005,0.152,0.008,0.227,0.002c1.971-0.175,4.951,0.267,6.589,1.431c0.005,0.003,0.01,0.007,0.015,0.011 c0.754,0.577,1.226,1.612,1.329,2.912c0.155,1.962-0.548,4.129-1.749,5.394C54.868,78.788,51.837,79,50.621,79z M49.973,77.98 c0.263,0.011,0.466,0.02,0.647,0.02c2.265,0,4.278-0.696,5.384-1.862c1.018-1.07,1.611-2.93,1.477-4.625 c-0.079-1.01-0.411-1.788-0.933-2.192c-1.393-0.984-4.103-1.409-5.915-1.244c-0.121,0.01-0.238,0.007-0.356,0.001l-0.058-0.001 c-0.022,0.003-0.045,0.005-0.068,0.006c-0.007,0-0.148,0.003-0.162,0.003h0c-0.042-0.001-0.084-0.007-0.128-0.018v0.006 l-0.139,0.004c-0.119,0.006-0.236,0.009-0.354-0.001c-1.827-0.165-4.534,0.262-5.925,1.249c-0.512,0.393-0.846,1.174-0.925,2.188 c-0.134,1.695,0.459,3.555,1.477,4.625C45.102,77.304,47.115,78,49.379,78C49.561,78,49.764,77.991,49.973,77.98z M49.999,67.582 L50,67.585L49.999,67.582z"/><path fill="#472b29" d="M53.428,69.138l-0.043-0.215C53.161,67.805,52.179,67,51.038,67H50h-1.038 c-1.141,0-2.123,0.805-2.346,1.923l-0.043,0.215C46.276,70.619,47.409,72,48.919,72c0.488,0.016,0.843,0.413,1.081,1 c0.239-0.587,0.594-0.984,1.081-1C52.591,72,53.724,70.619,53.428,69.138z"/><path fill="#472b29" d="M35,55.109c0,0,0.519-2.453,5.036-1.705c0.26,3.314-2.544,2.447-2.544,2.447 S37.25,54.537,35,55.109z"/><path fill="#ffce00" d="M40.833,58.558c-1.866,0-3.169-1.763-3.169-4.287c0-0.276,0.224-0.5,0.5-0.5 c3.139,0,4.979,0.948,5.623,2.899c0.06,0.18,0.012,0.378-0.122,0.512C42.758,58.082,41.779,58.558,40.833,58.558z"/><path fill="#472b29" d="M38.164,54.271c2.574,0,4.514,0.637,5.148,2.556c-0.858,0.852-1.716,1.231-2.479,1.231 C39.308,58.058,38.164,56.543,38.164,54.271 M38.164,53.271c-0.552,0-1,0.448-1,1c0,2.774,1.543,4.787,3.67,4.787 c0.753,0,1.917-0.264,3.183-1.521c0.269-0.267,0.364-0.663,0.245-1.023C43.19,53.271,39.407,53.271,38.164,53.271L38.164,53.271 z"/><polygon fill="#472b29" points="39.5,53.535 40.75,57.507 42,54.528"/><path fill="#472b29" d="M65.312,55.109c0,0-0.519-2.453-5.036-1.705c-0.26,3.314,2.544,2.447,2.544,2.447 S63.063,54.537,65.312,55.109z"/><path fill="#ffce00" d="M59.479,58.558c-0.945,0-1.925-0.476-2.831-1.376c-0.135-0.134-0.182-0.332-0.122-0.512 c0.645-1.95,2.484-2.898,5.623-2.898c0.276,0,0.5,0.224,0.5,0.5c0,1.208-0.296,2.258-0.856,3.037 C61.212,58.114,60.391,58.558,59.479,58.558C59.479,58.558,59.479,58.558,59.479,58.558z"/><path fill="#472b29" d="M62.148,54.271h0.005 M62.148,54.271c0,2.272-1.144,3.787-2.67,3.787 c-0.763,0-1.621-0.379-2.479-1.231C57.634,54.908,59.574,54.271,62.148,54.271 M62.153,53.271h-0.005 c-1.243,0-5.026,0-6.098,3.242c-0.119,0.36-0.024,0.756,0.245,1.023c1.266,1.257,2.43,1.521,3.183,1.521 c2.107,0,3.641-1.976,3.669-4.71c0.002-0.025,0.003-0.051,0.003-0.076C63.151,53.719,62.706,53.271,62.153,53.271L62.153,53.271 z M62.148,55.271h0.005H62.148L62.148,55.271z"/><polygon fill="#472b29" points="60.813,53.535 59.563,57.507 58.313,54.528"/><path fill="#472b29" d="M42.125,71.292c-0.044,0-0.088-0.006-0.132-0.018c-0.267-0.072-0.424-0.348-0.351-0.614 c0.018-0.065,1.814-6.635,3.35-10.591c0.1-0.258,0.39-0.386,0.647-0.285c0.257,0.1,0.385,0.39,0.285,0.646 c-1.517,3.908-3.3,10.428-3.317,10.493C42.547,71.146,42.345,71.292,42.125,71.292z"/><path fill="#472b29" d="M57.833,71.208c-0.228,0-0.434-0.156-0.487-0.388c-0.015-0.064-1.504-6.503-2.819-10.411 c-0.088-0.262,0.052-0.545,0.314-0.633c0.266-0.086,0.546,0.053,0.633,0.314c1.332,3.955,2.832,10.439,2.847,10.505 c0.062,0.27-0.106,0.537-0.375,0.6C57.908,71.204,57.87,71.208,57.833,71.208z"/><path fill="#472b29" d="M46.883,76.631c-0.386,0-0.768-0.021-1.129-0.062c-1.867-0.204-3.216-0.877-3.701-1.846 c-0.124-0.247-0.023-0.547,0.224-0.671c0.247-0.125,0.547-0.022,0.671,0.224c0.32,0.64,1.437,1.138,2.915,1.3 c1.647,0.178,3.127-0.1,3.638-0.494v-4.499c0-0.276,0.224-0.5,0.5-0.5s0.5,0.224,0.5,0.5v4.708c0,0.114-0.04,0.226-0.112,0.315 C49.795,76.338,48.316,76.631,46.883,76.631z"/><path fill="#472b29" d="M53.165,76.548c-1.455,0-2.948-0.292-3.55-1.021c-0.074-0.09-0.114-0.202-0.114-0.318V70.5 c0-0.276,0.224-0.5,0.5-0.5s0.5,0.224,0.5,0.5v4.497c0.524,0.398,2.04,0.677,3.731,0.493c1.495-0.165,2.625-0.663,2.948-1.3 c0.125-0.247,0.425-0.345,0.672-0.219c0.246,0.125,0.344,0.426,0.219,0.672c-0.67,1.317-2.625,1.719-3.73,1.841 C53.964,76.525,53.566,76.548,53.165,76.548z"/><g><path fill="#472b29" d="M45.5,53.75c-0.112,0-0.214-0.076-0.243-0.189c-0.965-3.861-3.867-5.833-3.896-5.853 c-0.115-0.077-0.146-0.232-0.069-0.347c0.078-0.115,0.232-0.146,0.347-0.069c0.126,0.084,3.092,2.1,4.104,6.147 c0.033,0.134-0.048,0.27-0.182,0.303C45.54,53.748,45.52,53.75,45.5,53.75z"/></g><g><path fill="#472b29" d="M39.323,40.74c-0.112,0-0.214-0.076-0.243-0.189c-0.32-1.28-1.562-3.468-3.615-5.469 c-0.099-0.097-0.101-0.255-0.005-0.354c0.098-0.099,0.256-0.101,0.354-0.005c2.124,2.07,3.414,4.357,3.751,5.707 c0.033,0.134-0.048,0.27-0.182,0.303C39.363,40.737,39.343,40.74,39.323,40.74z"/></g><g><path fill="#472b29" d="M34.357,34.021c-0.055,0-0.109-0.018-0.156-0.054c-0.662-0.526-1.355-0.992-2.063-1.384 c-0.121-0.067-0.165-0.219-0.098-0.34c0.067-0.121,0.22-0.164,0.34-0.098c0.731,0.406,1.448,0.887,2.132,1.43 c0.108,0.086,0.126,0.243,0.04,0.352C34.504,33.989,34.431,34.021,34.357,34.021z"/></g><g><path fill="#472b29" d="M39.292,40.802c-0.087,0-0.172-0.046-0.218-0.128c-1.8-3.21-7.165-4.616-7.219-4.63 c-0.134-0.034-0.214-0.17-0.18-0.304c0.035-0.133,0.168-0.215,0.304-0.18c0.229,0.059,5.625,1.472,7.531,4.87 c0.067,0.12,0.024,0.272-0.096,0.34C39.375,40.792,39.333,40.802,39.292,40.802z"/></g><g><path fill="#472b29" d="M60.604,40.74c-0.02,0-0.041-0.002-0.061-0.007c-0.134-0.034-0.215-0.169-0.182-0.303 c0.503-2.013,3.135-6.037,7.184-8.283c0.119-0.066,0.272-0.023,0.34,0.098c0.067,0.121,0.023,0.273-0.098,0.34 c-3.919,2.174-6.459,6.039-6.941,7.967C60.818,40.664,60.716,40.74,60.604,40.74z"/></g><g><path fill="#472b29" d="M60.635,40.802c-0.042,0-0.083-0.01-0.123-0.032c-0.12-0.068-0.163-0.22-0.096-0.341 c0.659-1.175,1.811-2.24,3.423-3.167c0.118-0.068,0.272-0.028,0.341,0.092c0.069,0.12,0.027,0.272-0.092,0.341 c-1.533,0.881-2.621,1.883-3.235,2.979C60.808,40.756,60.723,40.802,60.635,40.802z"/></g><g><path fill="#472b29" d="M65.705,36.866c-0.097,0-0.189-0.057-0.23-0.151c-0.054-0.127,0.004-0.274,0.131-0.329 c1.302-0.558,2.3-0.815,2.342-0.826c0.135-0.036,0.27,0.047,0.304,0.18c0.034,0.134-0.046,0.27-0.18,0.304 c-0.01,0.002-1.005,0.26-2.269,0.802C65.771,36.86,65.738,36.866,65.705,36.866z"/></g><g><path fill="#472b29" d="M43.5,52.75c-0.064,0-0.128-0.024-0.177-0.073c-0.96-0.96-2.916-1.943-2.935-1.953 c-0.124-0.062-0.173-0.212-0.112-0.335c0.063-0.123,0.213-0.172,0.335-0.112c0.083,0.042,2.048,1.03,3.065,2.047 c0.098,0.098,0.098,0.256,0,0.354C43.628,52.726,43.564,52.75,43.5,52.75z"/></g><g><path fill="#472b29" d="M54.5,53.75c-0.02,0-0.04-0.002-0.061-0.008c-0.134-0.033-0.215-0.169-0.182-0.303 c1.012-4.047,3.978-6.063,4.104-6.147c0.115-0.078,0.27-0.045,0.347,0.069c0.077,0.115,0.045,0.27-0.069,0.347 c-0.029,0.02-2.933,2-3.896,5.853C54.714,53.674,54.612,53.75,54.5,53.75z"/></g><g><path fill="#472b29" d="M56.5,52.75c-0.064,0-0.128-0.024-0.177-0.073c-0.098-0.098-0.098-0.256,0-0.354 c1.017-1.017,2.982-2.005,3.065-2.047c0.125-0.062,0.273-0.012,0.335,0.112c0.062,0.124,0.012,0.273-0.112,0.335 c-0.02,0.01-1.976,0.994-2.935,1.953C56.628,52.726,56.564,52.75,56.5,52.75z"/></g></g></svg>