<svg xmlns="http://www.w3.org/2000/svg"  viewBox="0 0 100 100" width="100px" height="100px"><circle cx="77" cy="13" r="1" fill="#f1bc19"/><circle cx="50" cy="50" r="37" fill="#e4e4f9"/><circle cx="83" cy="15" r="4" fill="#f1bc19"/><circle cx="87" cy="24" r="2" fill="#8889b9"/><circle cx="81" cy="76" r="2" fill="#fbcd59"/><circle cx="15" cy="63" r="4" fill="#fbcd59"/><circle cx="25" cy="87" r="2" fill="#8889b9"/><circle cx="18.5" cy="51.5" r="2.5" fill="#fff"/><circle cx="79.5" cy="33.5" r="1.5" fill="#fff"/><g><path fill="#ee3e54" d="M50,73.783c-8.115-4.504-26.079-15.905-26.079-28.53c0-6.464,3.201-11.617,8.155-13.126 c0.958-0.283,1.931-0.427,2.886-0.427c3.972,0,9.459,1.694,12.949,6.45c0.06,0.084,0.136,0.216,0.223,0.362 c0.441,0.743,0.989,1.669,1.866,1.669s1.425-0.926,1.866-1.669c0.087-0.146,0.163-0.278,0.229-0.372 c2.948-4.017,7.839-6.421,13.076-6.421c0.928,0,1.854,0.137,2.755,0.407c4.951,1.509,8.152,6.662,8.152,13.126 C76.079,57.878,58.115,69.279,50,73.783z"/><path fill="#472b29" d="M34.962,32.4c3.8,0,9.049,1.62,12.369,6.143c0.058,0.082,0.123,0.197,0.199,0.324 c0.475,0.802,1.194,2.015,2.47,2.015s1.994-1.212,2.47-2.015c0.075-0.127,0.141-0.242,0.183-0.302 c3.325-4.531,8.647-6.145,12.519-6.145c0.86,0,1.719,0.127,2.548,0.377c4.653,1.417,7.66,6.307,7.66,12.456 c0,12.086-17.224,23.164-25.38,27.729c-8.155-4.565-25.38-15.643-25.38-27.729c0-6.149,3.007-11.039,7.649-12.453 C33.167,32.534,34.073,32.4,34.962,32.4 M34.962,31c-1.04,0-2.081,0.159-3.09,0.457c-5.253,1.6-8.652,7.017-8.652,13.795 c0,13.08,18.323,24.679,26.78,29.33c8.456-4.651,26.78-16.25,26.78-29.33c0-6.779-3.399-12.195-8.652-13.795 c-0.958-0.288-1.947-0.438-2.956-0.438C60.526,31.02,55,33,51.524,37.736c-0.33,0.467-0.906,1.746-1.524,1.746 s-1.195-1.278-1.524-1.746C45,33,39.515,31,34.962,31L34.962,31z"/></g><g><path fill="#472b29" d="M45.5,41.75c-0.076,0-0.151-0.035-0.2-0.101c-1.35-1.813-6.206-7.573-12.111-5.547 c-0.127,0.047-0.272-0.024-0.317-0.155s0.024-0.272,0.155-0.317c6.224-2.128,11.274,3.841,12.674,5.721 c0.083,0.111,0.06,0.268-0.051,0.35C45.604,41.734,45.552,41.75,45.5,41.75z"/><path fill="#472b29" d="M28.451,46.567c-0.127,0-0.235-0.096-0.249-0.224c-0.352-3.349,0.466-6.605,2.187-8.713 c0.087-0.107,0.244-0.123,0.352-0.035c0.106,0.087,0.123,0.244,0.035,0.352c-1.613,1.977-2.408,5.174-2.075,8.344 c0.014,0.138-0.086,0.261-0.223,0.275C28.469,46.567,28.46,46.567,28.451,46.567z"/><path fill="#472b29" d="M46.686,67.528c-0.046,0-0.092-0.013-0.133-0.038c-6.709-4.204-14.827-11.084-17.488-17.783 c-0.051-0.129,0.012-0.274,0.14-0.325c0.126-0.049,0.274,0.011,0.325,0.14c2.616,6.588,10.646,13.383,17.289,17.545 c0.117,0.073,0.152,0.228,0.079,0.345C46.85,67.486,46.769,67.528,46.686,67.528z"/><path fill="#472b29" d="M50.098,69.493c-0.09,0-0.178-0.049-0.222-0.135c-0.063-0.123-0.016-0.273,0.106-0.337 c7.061-3.66,20.618-13.205,21.4-23.139c0.299-3.803-0.835-7.061-3.032-8.715c-1.94-1.46-4.625-1.61-7.763-0.434 c-2.305,0.864-3.681,2.218-5.895,4.924c-0.086,0.106-0.246,0.123-0.352,0.035c-0.107-0.087-0.123-0.245-0.035-0.352 c1.924-2.353,3.488-4.094,6.105-5.076c3.308-1.24,6.154-1.065,8.239,0.503c2.335,1.757,3.542,5.179,3.229,9.153 c-0.799,10.152-14.523,19.84-21.668,23.543C50.176,69.484,50.137,69.493,50.098,69.493z"/></g><g><path fill="#fbcd59" d="M53.182,54.6c0-1.988-1.425-3.6-3.182-3.6s-3.182,1.612-3.182,3.6c0,1.2-0.861,1.27-1.254,1.399 c-1.702,0.558-2.856,2.219-2.499,4.076c0.271,1.409,1.477,2.571,2.967,2.851c0.856,0.161,1.674,0.052,2.377-0.253 c1-0.434,2.183-0.434,3.183,0c0.703,0.305,1.521,0.414,2.377,0.253c1.49-0.281,2.696-1.442,2.967-2.851 c0.35-1.819-0.751-3.451-2.397-4.041C54.117,55.883,53.182,55.8,53.182,54.6z"/><ellipse cx="42.6" cy="53" fill="#fbcd59" rx="2.4" ry="3"/><ellipse cx="57.4" cy="53" fill="#fbcd59" rx="2.4" ry="3"/><ellipse cx="46.5" cy="46.875" fill="#fbcd59" rx="2.5" ry="3.125"/><ellipse cx="53.4" cy="47" fill="#fbcd59" rx="2.4" ry="3"/></g><g><path fill="#472b29" d="M56.935,60.324c-0.016,0-0.031-0.001-0.047-0.005c-0.136-0.025-0.225-0.157-0.198-0.292 c0.309-1.603-0.632-3.183-2.235-3.758c-0.053-0.019-0.114-0.036-0.181-0.056c-0.469-0.136-1.342-0.389-1.342-1.614 c0-1.847-1.315-3.35-2.932-3.35c-0.918,0-1.766,0.478-2.326,1.312c-0.076,0.113-0.232,0.146-0.347,0.067 c-0.114-0.076-0.145-0.232-0.067-0.347c0.654-0.974,1.653-1.532,2.74-1.532c1.893,0,3.432,1.727,3.432,3.85 c0,0.851,0.521,1.001,0.98,1.134c0.078,0.022,0.149,0.043,0.21,0.065c1.838,0.659,2.914,2.477,2.558,4.322 C57.157,60.241,57.053,60.324,56.935,60.324z"/><path fill="#472b29" d="M46.817,63.25c-0.275,0-0.555-0.026-0.832-0.078c-1.602-0.302-2.873-1.527-3.165-3.051 c-0.366-1.9,0.755-3.733,2.666-4.359c0.051-0.017,0.109-0.033,0.172-0.05c0.427-0.116,0.91-0.247,0.91-1.112 c0-0.138,0.112-0.25,0.25-0.25s0.25,0.112,0.25,0.25c0,1.247-0.832,1.474-1.279,1.595c-0.054,0.015-0.104,0.028-0.146,0.042 c-1.669,0.547-2.649,2.141-2.332,3.791c0.25,1.303,1.388,2.394,2.767,2.652c0.771,0.146,1.541,0.063,2.232-0.236 c1.059-0.459,2.322-0.459,3.381,0c0.69,0.299,1.46,0.382,2.232,0.236c0.657-0.124,1.267-0.432,1.762-0.889 c0.104-0.094,0.262-0.086,0.354,0.014c0.094,0.102,0.088,0.26-0.014,0.354c-0.564,0.521-1.259,0.871-2.009,1.014 c-0.871,0.162-1.742,0.069-2.524-0.27c-0.935-0.406-2.05-0.406-2.982,0C47.977,63.133,47.402,63.25,46.817,63.25z"/><path fill="#472b29" d="M42.6,56.25c-0.138,0-0.25-0.112-0.25-0.25s0.112-0.25,0.25-0.25c1.186,0,2.15-1.233,2.15-2.75 s-0.965-2.75-2.15-2.75S40.45,51.483,40.45,53c0,0.745,0.23,1.442,0.648,1.965c0.086,0.107,0.068,0.266-0.039,0.352 c-0.106,0.087-0.264,0.069-0.352-0.039c-0.488-0.61-0.758-1.42-0.758-2.277c0-1.792,1.188-3.25,2.649-3.25 c1.462,0,2.65,1.458,2.65,3.25S44.062,56.25,42.6,56.25z"/><path fill="#472b29" d="M57.4,56.25c-1.462,0-2.65-1.458-2.65-3.25s1.188-3.25,2.65-3.25c0.832,0,1.599,0.464,2.104,1.272 c0.073,0.117,0.038,0.271-0.079,0.345c-0.117,0.072-0.271,0.038-0.345-0.079c-0.412-0.66-1.024-1.038-1.681-1.038 c-1.186,0-2.15,1.233-2.15,2.75s0.965,2.75,2.15,2.75S59.55,54.517,59.55,53c0-0.138,0.112-0.25,0.25-0.25s0.25,0.112,0.25,0.25 C60.05,54.792,58.861,56.25,57.4,56.25z"/><path fill="#472b29" d="M46.5,50.25c-1.517,0-2.75-1.514-2.75-3.375c0-0.866,0.266-1.689,0.749-2.317 c0.083-0.111,0.242-0.131,0.351-0.046c0.109,0.084,0.13,0.241,0.046,0.351c-0.416,0.542-0.646,1.256-0.646,2.013 c0,1.585,1.01,2.875,2.25,2.875s2.25-1.29,2.25-2.875S47.74,44,46.5,44c-0.138,0-0.25-0.112-0.25-0.25s0.112-0.25,0.25-0.25 c1.517,0,2.75,1.514,2.75,3.375S48.017,50.25,46.5,50.25z"/><path fill="#472b29" d="M53.4,50.25c-1.462,0-2.65-1.458-2.65-3.25s1.188-3.25,2.65-3.25c1.461,0,2.649,1.458,2.649,3.25 S54.861,50.25,53.4,50.25z M53.4,44.25c-1.186,0-2.15,1.233-2.15,2.75s0.965,2.75,2.15,2.75S55.55,48.517,55.55,47 S54.586,44.25,53.4,44.25z"/></g></svg>