<svg xmlns="http://www.w3.org/2000/svg"  viewBox="0 0 100 100" width="100px" height="100px"><path fill="#c7ede6" d="M87.215,56.71C88.35,54.555,89,52.105,89,49.5c0-6.621-4.159-12.257-10.001-14.478 C78.999,35.015,79,35.008,79,35c0-11.598-9.402-21-21-21c-9.784,0-17.981,6.701-20.313,15.757C36.211,29.272,34.638,29,33,29 c-7.692,0-14.023,5.793-14.89,13.252C12.906,43.353,9,47.969,9,53.5C9,59.851,14.149,65,20.5,65c0.177,0,0.352-0.012,0.526-0.022 C21.022,65.153,21,65.324,21,65.5C21,76.822,30.178,86,41.5,86c6.437,0,12.175-2.972,15.934-7.614C59.612,80.611,62.64,82,66,82 c4.65,0,8.674-2.65,10.666-6.518C77.718,75.817,78.837,76,80,76c6.075,0,11-4.925,11-11C91,61.689,89.53,58.727,87.215,56.71z"/><path fill="#fdfcef" d="M34.875,39.149c0,0,3.64,0,6.125,0s4.5-2.015,4.5-4.5c0-2.333-1.782-4.229-4.055-4.455 c0.022-0.181,0.055-0.358,0.055-0.545c0-2.485-2.015-4.5-4.5-4.5c-1.438,0-2.703,0.686-3.527,1.736 c-0.14-2.636-2.302-4.736-4.973-4.736c-2.761,0-5,2.239-5,5c0,0.446,0.077,0.87,0.187,1.282c-0.642-0.777-1.6-1.282-2.687-1.282 c-1.781,0-3.234,1.335-3.455,3.055c-0.181-0.022-0.358-0.055-0.545-0.055c-2.485,0-4.5,2.015-4.5,4.5s2.015,4.5,4.5,4.5 s9.5,0,9.5,0h5.375v0.5h3V39.149z"/><path fill="#472b29" d="M28.5,21.649c-3.033,0-5.5,2.467-5.5,5.5c0,0.016,0,0.031,0,0.047c-0.602-0.354-1.29-0.547-2-0.547 c-1.831,0-3.411,1.261-3.858,3.005c-0.047-0.003-0.094-0.005-0.142-0.005c-2.757,0-5,2.243-5,5s2.243,5,5,5h14.875 c0.276,0,0.5-0.224,0.5-0.5s-0.224-0.5-0.5-0.5H17c-2.206,0-4-1.794-4-4s1.794-4,4-4c0.117,0,0.23,0.017,0.343,0.032l0.141,0.019 c0.021,0.003,0.041,0.004,0.062,0.004c0.246,0,0.462-0.185,0.495-0.437c0.191-1.493,1.463-2.618,2.959-2.618 c0.885,0,1.723,0.401,2.301,1.1c0.098,0.118,0.241,0.182,0.386,0.182c0.078,0,0.156-0.018,0.228-0.056 c0.209-0.107,0.314-0.346,0.254-0.573C24.054,27.867,24,27.5,24,27.149c0-2.481,2.019-4.5,4.5-4.5 c2.381,0,4.347,1.872,4.474,4.263c0.011,0.208,0.15,0.387,0.349,0.45c0.05,0.016,0.101,0.024,0.152,0.024 c0.15,0,0.296-0.069,0.392-0.192c0.771-0.981,1.913-1.544,3.133-1.544c2.206,0,4,1.794,4,4c0,0.117-0.017,0.23-0.032,0.343 l-0.019,0.141c-0.016,0.134,0.022,0.268,0.106,0.373c0.084,0.105,0.207,0.172,0.34,0.185C43.451,30.896,45,32.598,45,34.649 c0,2.206-1.794,4-4,4h-6.125c-0.276,0-0.5,0.224-0.5,0.5s0.224,0.5,0.5,0.5H41c2.757,0,5-2.243,5-5 c0-2.397-1.689-4.413-4.003-4.877C41.999,29.731,42,29.69,42,29.649c0-2.757-2.243-5-5-5c-1.176,0-2.293,0.416-3.183,1.164 C33.219,23.409,31.055,21.649,28.5,21.649L28.5,21.649z"/><path fill="#472b29" d="M27,28.649c-1.403,0-2.609,0.999-2.913,2.341c-0.367-0.222-0.786-0.341-1.212-0.341 c-1.202,0-2.198,0.897-2.353,2.068c-0.203-0.045-0.396-0.068-0.585-0.068c-1.529,0-2.811,1.2-2.918,2.732 c-0.009,0.138,0.094,0.257,0.232,0.267c0.006,0,0.012,0,0.018,0c0.13,0,0.24-0.101,0.249-0.232 c0.089-1.271,1.151-2.268,2.419-2.268c0.229,0,0.47,0.042,0.738,0.127c0.022,0.007,0.045,0.01,0.067,0.01 c0.055,0,0.11-0.02,0.156-0.054C20.962,33.186,21,33.103,21,33.024c0-1.034,0.841-1.875,1.875-1.875 c0.447,0,0.885,0.168,1.231,0.473c0.047,0.041,0.106,0.063,0.165,0.063c0.032,0,0.063-0.006,0.093-0.019 c0.088-0.035,0.148-0.117,0.155-0.212c0.102-1.292,1.191-2.305,2.479-2.305c0.208,0,0.425,0.034,0.682,0.107 c0.023,0.007,0.047,0.01,0.07,0.01c0.109,0,0.207-0.073,0.239-0.182c0.038-0.133-0.039-0.271-0.172-0.309 C27.517,28.689,27.256,28.649,27,28.649L27,28.649z"/><path fill="#472b29" d="M40.883,30.149c-1.326,0-2.508,0.897-2.874,2.182c-0.038,0.133,0.039,0.271,0.172,0.309 c0.023,0.007,0.046,0.01,0.068,0.01c0.109,0,0.209-0.072,0.24-0.182c0.305-1.071,1.289-1.818,2.393-1.818 c0.117,0,0.23,0.014,0.342,0.029c0.012,0.002,0.023,0.003,0.035,0.003c0.121,0,0.229-0.092,0.246-0.217 c0.019-0.137-0.077-0.263-0.214-0.281C41.158,30.165,41.022,30.149,40.883,30.149L40.883,30.149z"/><g><path fill="#fff" d="M27.405,67.649H17.5c-0.276,0-0.5-0.224-0.5-0.5s0.224-0.5,0.5-0.5h9.905 c0.276,0,0.5,0.224,0.5,0.5S27.682,67.649,27.405,67.649z"/><path fill="#fff" d="M30.5,67.649h-1c-0.276,0-0.5-0.224-0.5-0.5s0.224-0.5,0.5-0.5h1c0.276,0,0.5,0.224,0.5,0.5 S30.777,67.649,30.5,67.649z"/><path fill="#fff" d="M35.491,69.649H26.5c-0.276,0-0.5-0.224-0.5-0.5s0.224-0.5,0.5-0.5h8.991 c0.276,0,0.5,0.224,0.5,0.5S35.767,69.649,35.491,69.649z"/><path fill="#fff" d="M24.5,69.649h-1c-0.276,0-0.5-0.224-0.5-0.5s0.224-0.5,0.5-0.5h1c0.276,0,0.5,0.224,0.5,0.5 S24.777,69.649,24.5,69.649z"/><path fill="#fff" d="M21.5,69.649h-2c-0.276,0-0.5-0.224-0.5-0.5s0.224-0.5,0.5-0.5h2c0.276,0,0.5,0.224,0.5,0.5 S21.777,69.649,21.5,69.649z"/><path fill="#fff" d="M27.5,71.649h-2c-0.276,0-0.5-0.224-0.5-0.5s0.224-0.5,0.5-0.5h2c0.276,0,0.5,0.224,0.5,0.5 S27.776,71.649,27.5,71.649z"/><path fill="#fff" d="M30.5,62.649c-0.177,0-0.823,0-1,0c-0.276,0-0.5,0.224-0.5,0.5c0,0.276,0.224,0.5,0.5,0.5 c0.177,0,0.823,0,1,0c0.276,0,0.5-0.224,0.5-0.5C31,62.873,30.776,62.649,30.5,62.649z"/><path fill="#fff" d="M30.5,64.649c-0.177,0-4.823,0-5,0c-0.276,0-0.5,0.224-0.5,0.5c0,0.276,0.224,0.5,0.5,0.5 c0.177,0,4.823,0,5,0c0.276,0,0.5-0.224,0.5-0.5C31,64.873,30.776,64.649,30.5,64.649z"/><path fill="#fff" d="M35.5,66.649c-0.177,0-2.823,0-3,0c-0.276,0-0.5,0.224-0.5,0.5c0,0.276,0.224,0.5,0.5,0.5 c0.177,0,2.823,0,3,0c0.276,0,0.5-0.224,0.5-0.5C36,66.873,35.776,66.649,35.5,66.649z"/></g><g><path fill="#fff" d="M72.5,24h-10c-0.276,0-0.5-0.224-0.5-0.5s0.224-0.5,0.5-0.5h10c0.276,0,0.5,0.224,0.5,0.5 S72.776,24,72.5,24z"/><path fill="#fff" d="M76.5,24h-2c-0.276,0-0.5-0.224-0.5-0.5s0.224-0.5,0.5-0.5h2c0.276,0,0.5,0.224,0.5,0.5 S76.776,24,76.5,24z"/><path fill="#fff" d="M81.5,26h-10c-0.276,0-0.5-0.224-0.5-0.5s0.224-0.5,0.5-0.5h10c0.276,0,0.5,0.224,0.5,0.5 S81.777,26,81.5,26z"/><path fill="#fff" d="M69.5,26h-1c-0.276,0-0.5-0.224-0.5-0.5s0.224-0.5,0.5-0.5h1c0.276,0,0.5,0.224,0.5,0.5 S69.776,26,69.5,26z"/><path fill="#fff" d="M66.375,26H64.5c-0.276,0-0.5-0.224-0.5-0.5s0.224-0.5,0.5-0.5h1.875c0.276,0,0.5,0.224,0.5,0.5 S66.651,26,66.375,26z"/><path fill="#fff" d="M75.5,22h-5c-0.276,0-0.5-0.224-0.5-0.5s0.224-0.5,0.5-0.5h5c0.276,0,0.5,0.224,0.5,0.5 S75.777,22,75.5,22z"/><path fill="#fff" d="M72.5,28h-2c-0.276,0-0.5-0.224-0.5-0.5s0.224-0.5,0.5-0.5h2c0.276,0,0.5,0.224,0.5,0.5 S72.776,28,72.5,28z"/></g><g><path fill="#fdfcef" d="M87.5,61.149c0,0,1.567,0,3.5,0s3.5-1.567,3.5-3.5c0-1.781-1.335-3.234-3.055-3.455 c0.028-0.179,0.055-0.358,0.055-0.545c0-1.933-1.567-3.5-3.5-3.5c-1.032,0-1.95,0.455-2.59,1.165 c-0.384-1.808-1.987-3.165-3.91-3.165c-2.209,0-4,1.791-4,4c0,0.191,0.03,0.374,0.056,0.558c-0.428-0.344-0.965-0.558-1.556-0.558 c-1.228,0-2.245,0.887-2.455,2.055c-0.179-0.028-0.358-0.055-0.545-0.055c-1.933,0-3.5,1.567-3.5,3.5s1.567,3.5,3.5,3.5 s7.5,0,7.5,0v0.5h7V61.149z"/><path fill="#472b29" d="M89.25,56.649c-0.138,0-0.25-0.112-0.25-0.25c0-1.223,0.995-2.218,2.218-2.218 c0.034,0.009,0.737-0.001,1.244,0.136c0.133,0.036,0.212,0.173,0.176,0.306c-0.036,0.134-0.173,0.213-0.306,0.176 c-0.444-0.12-1.1-0.12-1.113-0.118c-0.948,0-1.719,0.771-1.719,1.718C89.5,56.537,89.388,56.649,89.25,56.649z"/><circle cx="82.5" cy="61.149" r=".5" fill="#472b29"/><path fill="#472b29" d="M91,61.649h-3.5c-0.276,0-0.5-0.224-0.5-0.5s0.224-0.5,0.5-0.5H91c1.654,0,3-1.346,3-3 c0-1.496-1.125-2.768-2.618-2.959c-0.134-0.018-0.255-0.088-0.336-0.196s-0.115-0.244-0.094-0.377 C90.975,53.963,91,53.809,91,53.649c0-1.654-1.346-3-3-3c-0.85,0-1.638,0.355-2.219,1c-0.125,0.139-0.321,0.198-0.5,0.148 c-0.182-0.049-0.321-0.195-0.36-0.379c-0.341-1.604-1.779-2.769-3.42-2.769c-1.93,0-3.5,1.57-3.5,3.5 c0,0.143,0.021,0.28,0.041,0.418c0.029,0.203-0.063,0.438-0.242,0.54c-0.179,0.102-0.396,0.118-0.556-0.01 c-0.365-0.293-0.794-0.448-1.243-0.448c-0.966,0-1.792,0.691-1.963,1.644c-0.048,0.267-0.296,0.446-0.569,0.405 c-0.153-0.024-0.308-0.049-0.468-0.049c-1.654,0-3,1.346-3,3s1.346,3,3,3h7.5c0.276,0,0.5,0.224,0.5,0.5s-0.224,0.5-0.5,0.5H73 c-2.206,0-4-1.794-4-4s1.794-4,4-4c0.059,0,0.116,0.002,0.174,0.006c0.414-1.186,1.537-2.006,2.826-2.006 c0.349,0,0.689,0.061,1.011,0.18c0.165-2.333,2.115-4.18,4.489-4.18c1.831,0,3.466,1.127,4.153,2.774 c0.68-0.499,1.502-0.774,2.347-0.774c2.206,0,4,1.794,4,4c0,0.048-0.001,0.095-0.004,0.142C93.739,54.239,95,55.818,95,57.649 C95,59.854,93.206,61.649,91,61.649z"/><path fill="#472b29" d="M85.5,60.649c-0.159,0-0.841,0-1,0c-0.276,0-0.5,0.224-0.5,0.5c0,0.276,0.224,0.5,0.5,0.5 c0.159,0,0.841,0,1,0c0.276,0,0.5-0.224,0.5-0.5C86,60.873,85.776,60.649,85.5,60.649z"/></g><g><path fill="#f4989e" d="M62,49.093l5.963-6.815V29.501l-1.704-0.852l-7.667,7.667l-1.704,10.222l-3.407-0.852l-3.407,0.852 L48.37,36.316l-7.667-7.667L39,29.501v12.778l5.963,6.815l-2.556,11.074l-1.704,3.407l1.704,5.111l2.556,3.407h5.111 c0.029,3.411,6.844,3.404,6.815,0H62l2.556-3.407l1.704-5.111l-1.704-4.259L62,49.093z"/><path fill="none" stroke="#472b29" stroke-linecap="round" stroke-linejoin="round" stroke-miterlimit="10" stroke-width="1.4" d="M61.75,49.649l6.5-7V30.024l-1.875-0.625l-7.625,7.25l-1.875,10.25l-3.375-0.5l-3.5,0.5l-1.75-10.25l-7.625-7.25l-1.875,0.625 v12.625l6.5,7l-2.75,11l-1.875,3.5l1.694,5.037L45,72.399h5c0.055,3.345,7.055,3.322,7,0h5l2.5-3.125l1.75-5.25l-1.75-3.375 L61.75,49.649z"/><line x1="62.875" x2="61.063" y1="36.176" y2="37.9" fill="none" stroke="#472b29" stroke-linecap="round" stroke-linejoin="round" stroke-miterlimit="10" stroke-width=".5"/><polyline fill="none" stroke="#472b29" stroke-linecap="round" stroke-linejoin="round" stroke-miterlimit="10" stroke-width=".5" points="65.75,37.399 65.75,33.443 64.625,34.513"/><line x1="65.75" x2="65.75" y1="41.399" y2="39.899" fill="none" stroke="#472b29" stroke-linecap="round" stroke-linejoin="round" stroke-miterlimit="10" stroke-width=".5"/><line x1="45.992" x2="47.082" y1="46.774" y2="47.948" fill="none" stroke="#472b29" stroke-linecap="round" stroke-linejoin="round" stroke-miterlimit="10" stroke-width=".5"/><polyline fill="none" stroke="#472b29" stroke-linecap="round" stroke-linejoin="round" stroke-miterlimit="10" stroke-width=".5" points="41.25,40.899 41.25,41.667 44.019,44.649"/><polyline fill="none" stroke="#472b29" stroke-linecap="round" stroke-linejoin="round" stroke-miterlimit="10" stroke-width=".5" points="45.925,37.888 41.25,33.443 41.25,38.399"/><polyline fill="none" stroke="#472b29" stroke-linecap="round" stroke-linejoin="round" stroke-miterlimit="10" stroke-width="1.4" points="50.074,72.093 53.5,69.774 56.889,72.093"/><polyline fill="none" stroke="#472b29" stroke-linecap="round" stroke-linejoin="round" stroke-miterlimit="10" stroke-width="1.4" points="51.75,66.399 53.625,67.899 53.625,69.649"/><path fill="#a8dbdb" d="M58.78,60.167h1.164c0.226,0,0.443-0.09,0.602-0.25L62,58.464l1.5-2.565l-2.352-1.694h-0.852 l-1.521,1.521c-0.119,0.119-0.2,0.27-0.233,0.435l-0.597,2.987C57.839,59.676,58.242,60.167,58.78,60.167z"/><path fill="#a8dbdb" d="M48.37,60.167h-1.164c-0.226,0-0.443-0.09-0.602-0.25l-1.454-1.454l-1.525-2.565l2.377-1.694h0.852 l1.521,1.521c0.119,0.119,0.2,0.27,0.233,0.435l0.597,2.987C49.311,59.676,48.908,60.167,48.37,60.167z"/><line x1="55.25" x2="53.625" y1="66.399" y2="67.899" fill="none" stroke="#472b29" stroke-linecap="round" stroke-linejoin="round" stroke-miterlimit="10" stroke-width="1.4"/><path fill="none" stroke="#472b29" stroke-linejoin="round" stroke-miterlimit="10" d="M58.78,60.167h1.164 c0.226,0,0.443-0.09,0.602-0.25L62,58.464l1.5-2.565l-2.352-1.694h-0.852l-1.521,1.521c-0.119,0.119-0.2,0.27-0.233,0.435 l-0.597,2.987C57.839,59.676,58.242,60.167,58.78,60.167z"/><path fill="none" stroke="#472b29" stroke-linejoin="round" stroke-miterlimit="10" d="M48.37,60.167h-1.164 c-0.226,0-0.443-0.09-0.602-0.25l-1.454-1.454l-1.525-2.565l2.377-1.694h0.852l1.521,1.521c0.119,0.119,0.2,0.27,0.233,0.435 l0.597,2.987C49.311,59.676,48.908,60.167,48.37,60.167z"/><circle cx="59.812" cy="56.461" r="1.188" fill="#472b29"/><circle cx="47.188" cy="56.461" r="1.188" fill="#472b29"/></g></svg>